<svg version="1.1" id="Layer_1" xmlns="http://www.w3.org/2000/svg" xmlns:xlink="http://www.w3.org/1999/xlink" x="0px" y="0px"
	 viewBox="0 0 888.2 248.7" style="enable-background:new 0 0 888.2 248.7;" xml:space="preserve">
<style type="text/css">
	.st-castpro-0{fill:#CECECE;}
	.st-castpro-1{fill:#21B79A;}
	.st-castpro-2{fill:#CECECE;stroke:#CECECE;stroke-width:3;stroke-miterlimit:10;}
	.st-castpro-3{fill:#21B79A;}
	.st-castpro-4{fill:#21B79A;}
</style>
<g>
	<g>
		<g>
			<g>
				<path class="st-castpro-0" d="M335.2,150.8c-7.1,9.4-17.2,14.4-29.4,14.4c-20.7,0-35.6-15.5-35.6-36.8c0-21,15-36.8,35-36.8
					c11.6,0,21,4.4,27.7,13.2l0.9,1.1l9.1-6.5l-0.9-1.2c-8.7-11.4-21.4-17.4-36.6-17.4c-26.9,0-47.1,20.5-47.1,47.7
					c-0.1,13.1,4.7,25.2,13.4,34c8.8,8.8,20.8,13.7,34,13.7c16.4,0,29.5-6.3,38.9-18.6l0.9-1.2l-9.2-6.5L335.2,150.8z"/>
				<path class="st-castpro-0" d="M394.1,79.7L355,175h11.9l6.4-15.7h44.5L424,175h12.1l-39.3-95.3H394.1z M413.4,148.6h-35.9l18.1-44.5
					L413.4,148.6z"/>
				<path class="st-castpro-0" d="M486.1,122.5l-7.3-3.4c-11.5-5.4-15.1-8.3-15.1-15.6c0-7.3,5.4-12.2,13.4-12.2c7.6,0,12.7,2.8,16.6,9.2
					l0.8,1.3l9.2-5.9l-0.8-1.3c-5.9-9.5-14.1-14-25.9-14c-14.3,0-24.7,9.7-24.7,23c0,13.1,8,19.5,21.7,25.9l7.3,3.5
					c10.7,5,16.1,9.1,16.1,18.1c0,8.8-6.8,14-18.1,14c-9.8,0-17.7-4.8-22.3-13.4l-0.7-1.3l-9.9,5.2l0.7,1.3c6.5,12.2,18,19,32.4,19
					c18,0,29.6-9.9,29.6-25.1C509,136.3,500.6,129.4,486.1,122.5z"/>
				<polygon class="st-castpro-0" points="519.3,81.8 519.3,92.5 547.2,92.5 547.2,175 558.9,175 558.9,92.5 586.7,92.5 586.7,81.8 				"/>
			</g>
			<g>
				<path class="st-castpro-1" d="M615.3,173.5h-8.6V83.3h19.4c24.4,0,37.1,14.5,37.1,34c0,19.4-12.7,33.7-37.1,33.7h-10.7V173.5z
					 M625.5,143.2c20.6,0,28.8-11,28.8-26c0-15.1-8.2-26.3-28.8-26.3h-10.2v52.3H625.5z"/>
			</g>
			<g>
				<path class="st-castpro-1" d="M743.1,173.5h-10.5l-17.9-23.1c-2.4,0.4-4.8,0.5-7.4,0.5h-11v22.5h-8.6V83.3h19.6c24.5,0,37.3,14.5,37.3,34
					c0,14.5-7.2,26.3-21.1,31.2L743.1,173.5z M706.7,143.4c20.6,0,28.8-11,28.8-26.1c0-15.1-8.4-26.3-28.8-26.3h-10.5v52.4H706.7z"
					/>
			</g>
			<g>
				<path class="st-castpro-1" d="M763.9,128.4c0-26.7,20.7-46.2,46.3-46.2c25.6,0,46.3,19.5,46.3,46.2c0,26.7-20.7,46.2-46.3,46.2
					C784.6,174.5,763.9,155,763.9,128.4z M847.4,128.4c0-21.9-15.8-38.3-37.3-38.3c-21.5,0-37.3,16.4-37.3,38.3
					c0,21.9,15.8,38.3,37.3,38.3C831.7,166.7,847.4,150.3,847.4,128.4z"/>
			</g>
		</g>
		<g>
			<g>
				<path class="st-castpro-1" d="M188.7,124.3c0-20.3-8.8-38.7-22.8-51.4l-6.1,6.8c12.2,11,19.8,26.9,19.8,44.6c0,17.7-7.6,33.6-19.8,44.6
					l6.1,6.8C179.9,162.9,188.7,144.6,188.7,124.3z"/>
			</g>
			<g>
				<path class="st-castpro-1" d="M161,124.3c0-12.2-5.3-23.2-13.7-30.8l-6.1,6.8c6.6,6,10.7,14.5,10.7,24.1c0,9.5-4.1,18.1-10.7,24.1
					l6.1,6.8C155.7,147.5,161,136.5,161,124.3z"/>
			</g>
			<g>
				<path class="st-castpro-1" d="M216.8,124.3c0-28.6-12.4-54.3-32-72.2l-6.1,6.8c17.8,16.2,29,39.5,29,65.4c0,25.9-11.2,49.2-29,65.4
					l6.1,6.8C204.4,178.6,216.8,152.8,216.8,124.3z"/>
			</g>
		</g>
	</g>
	<path class="st-castpro-0" d="M160.4,182.7c-10.5,6.3-22.5,9.6-34.9,9.6c-37.5,0-68-30.5-68-68s30.5-68,68-68c11.7,0,23.2,3,33.3,8.7
		l17.6-19.3l0-0.1c-15.2-9.9-32.8-15.1-51-15.1c-51.7,0-93.7,42-93.7,93.7c0,51.7,42,93.7,93.7,93.7c18.8,0,37-5.6,52.5-16.1
		L160.4,182.7z"/>
</g>
</svg>
